<svg width="162" height="48" viewBox="0 0 162 48" fill="none" xmlns="http://www.w3.org/2000/svg">
<path d="M155.998 48.0001H6.00282C2.70286 48.0001 0.00292969 45.3001 0.00292969 42.0002V6.00086C0.00292969 2.7009 2.70286 0.000976562 6.00282 0.000976562H155.998C159.298 0.000976562 161.998 2.7009 161.998 6.00086V42.0002C161.998 45.3001 159.298 48.0001 155.998 48.0001Z" fill="white"/>
<path d="M155.998 0.000976562H6.00282C2.70286 0.000976562 0.00292969 2.7009 0.00292969 6.00086V42.0002C0.00292969 45.3001 2.70286 48.0001 6.00282 48.0001H155.998C159.298 48.0001 161.998 45.3001 161.998 42.0002V6.00086C161.998 2.7009 159.298 0.000976562 155.998 0.000976562ZM155.998 0.960473C158.777 0.960473 161.038 3.22174 161.038 6.00086V42.0002C161.038 44.7793 158.777 47.0406 155.998 47.0406H6.00282C3.22369 47.0406 0.963416 44.7793 0.963416 42.0002V6.00086C0.963416 3.22174 3.22369 0.960473 6.00282 0.960473H155.998Z" fill="#D1D9E9"/>
<path d="M128.322 36.0004H130.562V20.9982H128.322V36.0004ZM148.491 26.4027L145.924 32.9065H145.847L143.183 26.4027H140.771L144.767 35.4928L142.488 40.5495H144.824L150.981 26.4032L148.491 26.4027ZM135.792 34.2963C135.06 34.2963 134.036 33.9293 134.036 33.0223C134.036 31.8644 135.31 31.4205 136.41 31.4205C137.394 31.4205 137.858 31.6325 138.456 31.9221C138.282 33.3119 137.085 34.2963 135.792 34.2963ZM136.063 26.0746C134.442 26.0746 132.763 26.7889 132.068 28.3715L134.055 29.2012C134.48 28.3715 135.271 28.1015 136.101 28.1015C137.259 28.1015 138.436 28.7957 138.455 30.0313V30.1855C138.05 29.9539 137.181 29.6067 136.12 29.6067C133.977 29.6067 131.797 30.7836 131.797 32.9838C131.797 34.991 133.554 36.2843 135.522 36.2843C137.026 36.2843 137.858 35.6088 138.377 34.8172H138.455V35.9758H140.618V30.2239C140.618 27.5605 138.628 26.0746 136.063 26.0746ZM122.224 28.2289H119.039V23.0869H122.224C123.898 23.0869 124.849 24.4726 124.849 25.6579C124.849 26.8204 123.898 28.2289 122.224 28.2289ZM122.167 20.9986H116.801V36.0008H119.04V30.3173H122.167C124.648 30.3173 127.088 28.5211 127.088 25.6584C127.088 22.7963 124.648 20.9986 122.167 20.9986ZM92.9102 34.2988C91.3632 34.2988 90.0686 33.0032 90.0686 31.2253C90.0686 29.4268 91.3632 28.1128 92.9102 28.1128C94.4374 28.1128 95.6359 29.4268 95.6359 31.2253C95.6359 33.0032 94.4374 34.2988 92.9102 34.2988ZM95.4812 27.2425H95.4038C94.9014 26.6434 93.9343 26.102 92.717 26.102C90.1647 26.102 87.8257 28.345 87.8257 31.2253C87.8257 34.0861 90.1647 36.3093 92.717 36.3093C93.9343 36.3093 94.9013 35.7678 95.4038 35.1496H95.4812V35.8836C95.4812 37.8369 94.4374 38.8803 92.7554 38.8803C91.3834 38.8803 90.5327 37.8945 90.1844 37.0634L88.2322 37.8752C88.7923 39.2279 90.2805 40.8912 92.7555 40.8912C95.3852 40.8912 97.6084 39.3442 97.6084 35.5742V26.4112H95.4813L95.4812 27.2425ZM99.1552 35.9999H101.397V20.9978H99.1552V35.9999ZM104.703 31.051C104.645 29.079 106.231 28.074 107.371 28.074C108.261 28.074 109.014 28.5188 109.266 29.1563L104.703 31.051ZM111.662 29.3494C111.237 28.2095 109.942 26.102 107.294 26.102C104.664 26.102 102.48 28.1705 102.48 31.2057C102.48 34.0669 104.645 36.3094 107.544 36.3094C109.883 36.3094 111.237 34.8793 111.798 34.0477L110.058 32.8875C109.478 33.7383 108.686 34.2989 107.544 34.2989C106.404 34.2989 105.592 33.7768 105.071 32.7522L111.894 29.9299L111.662 29.3494ZM57.2938 27.6681V29.8332H62.4747C62.32 31.0511 61.914 31.9402 61.2953 32.559C60.5411 33.3127 59.3618 34.1442 57.2937 34.1442C54.1038 34.1442 51.6102 31.5732 51.6102 28.3834C51.6102 25.1936 54.1038 22.6222 57.2937 22.6222C59.0143 22.6222 60.2706 23.299 61.1986 24.1689L62.7263 22.6413C61.4307 21.4043 59.7104 20.457 57.2937 20.457C52.924 20.457 49.251 24.0142 49.251 28.3834C49.251 32.7521 52.924 36.3094 57.2937 36.3094C59.6519 36.3094 61.4307 35.536 62.8224 34.0862C64.2531 32.6555 64.6979 30.6451 64.6979 29.0209C64.6979 28.5189 64.6589 28.0549 64.5816 27.6681H57.2938ZM70.5887 34.2988C69.0417 34.2988 67.7077 33.0229 67.7077 31.2057C67.7077 29.3692 69.0417 28.1129 70.5887 28.1129C72.135 28.1129 73.469 29.3692 73.469 31.2057C73.469 33.0229 72.135 34.2988 70.5887 34.2988ZM70.5887 26.102C67.7654 26.102 65.4652 28.2478 65.4652 31.2057C65.4652 34.1442 67.7654 36.3094 70.5887 36.3094C73.4109 36.3094 75.7115 34.1442 75.7115 31.2057C75.7115 28.2478 73.4109 26.102 70.5887 26.102ZM81.764 34.2988C80.2182 34.2988 78.8837 33.0229 78.8837 31.2057C78.8837 29.3692 80.2183 28.1129 81.764 28.1129C83.311 28.1129 84.6445 29.3692 84.6445 31.2057C84.6445 33.0229 83.311 34.2988 81.764 34.2988ZM81.764 26.102C78.9418 26.102 76.6417 28.2478 76.6417 31.2057C76.6417 34.1442 78.9418 36.3094 81.764 36.3094C84.5874 36.3094 86.8875 34.1442 86.8875 31.2057C86.8875 28.2478 84.5874 26.102 81.764 26.102Z" fill="black"/>
<path d="M24.8596 23.3097L12.085 36.8692C12.0854 36.872 12.0864 36.8743 12.0869 36.8772C12.4786 38.3496 13.8235 39.4338 15.4196 39.4338C16.0576 39.4338 16.6566 39.2613 17.1704 38.9585L17.2111 38.9346L31.5914 30.6365L24.8596 23.3097Z" fill="#EB3131"/>
<path d="M37.7846 21.001L37.7723 20.9927L31.5639 17.3936L24.5693 23.6176L31.5882 30.6356L37.7639 27.0723C38.8466 26.4878 39.5816 25.3464 39.5816 24.0301C39.5816 22.7233 38.8566 21.5875 37.7846 21.001Z" fill="#F6B60B"/>
<path d="M12.084 11.1328C12.0072 11.416 11.9668 11.7126 11.9668 12.0207V35.9815C11.9668 36.289 12.0067 36.5866 12.0844 36.8688L25.3001 23.6558L12.084 11.1328Z" fill="#5778C5"/>
<path d="M24.9541 24.0013L31.5667 17.3906L17.2026 9.06253C16.6805 8.74981 16.0711 8.56934 15.4191 8.56934C13.823 8.56934 12.4763 9.65546 12.0845 11.1296C12.084 11.131 12.084 11.132 12.084 11.1333L24.9541 24.0013Z" fill="#3BAD49"/>
<path d="M56.8745 11.7379H53.3739V12.6041H55.9971C55.9258 13.311 55.6445 13.866 55.1702 14.2691C54.6958 14.6723 54.0902 14.8748 53.3739 14.8748C52.5883 14.8748 51.9227 14.601 51.3772 14.0573C50.8427 13.5024 50.5709 12.8161 50.5709 11.9892C50.5709 11.1624 50.8427 10.4761 51.3772 9.92118C51.9227 9.37747 52.5883 9.10556 53.3739 9.10556C53.7771 9.10556 54.1615 9.17492 54.5139 9.32684C54.8664 9.47863 55.1495 9.69055 55.3708 9.96247L56.0364 9.29684C55.7345 8.95365 55.3521 8.69121 54.8776 8.49994C54.4032 8.30866 53.9083 8.21686 53.3738 8.21686C52.3258 8.21686 51.4371 8.58057 50.7114 9.30623C49.9858 10.0337 49.6221 10.9299 49.6221 11.9892C49.6221 13.0485 49.9858 13.9467 50.7114 14.6724C51.4371 15.3979 52.3258 15.7618 53.3738 15.7618C54.4744 15.7618 55.352 15.4092 56.027 14.6929C56.6213 14.0968 56.925 13.2906 56.925 12.2818C56.925 12.1112 56.9045 11.9291 56.8745 11.7379ZM58.2306 8.37795V15.6004H62.4473V14.7135H59.1587V12.4224H62.1249V11.5561H59.1587V9.26675H62.4473V8.37793L58.2306 8.37795ZM68.3602 9.26678V8.37795H63.3971V9.26678H65.4146V15.6004H66.3427V9.26678H68.3602ZM72.8535 8.37795H71.9254V15.6004H72.8535V8.37795ZM78.9794 9.26678V8.37795H74.0164V9.26678H76.0338V15.6004H76.9619V9.26678H78.9794ZM88.3449 9.31741C87.6286 8.58052 86.7512 8.2168 85.703 8.2168C84.6531 8.2168 83.7757 8.58051 83.0593 9.30616C82.3431 10.0224 81.9907 10.9205 81.9907 11.9892C81.9907 13.0578 82.3431 13.956 83.0593 14.6724C83.7756 15.3979 84.6531 15.7617 85.703 15.7617C86.7417 15.7617 87.6286 15.3979 88.3449 14.6724C89.0612 13.9561 89.4136 13.0579 89.4136 11.9892C89.4136 10.9299 89.0611 10.0335 88.3449 9.31741ZM83.725 9.92112C84.2593 9.37741 84.9156 9.1055 85.703 9.1055C86.4886 9.1055 87.1449 9.37742 87.6699 9.92112C88.2042 10.4555 88.4667 11.1529 88.4667 11.9892C88.4667 12.8273 88.2042 13.5229 87.6699 14.0573C87.1449 14.601 86.4886 14.8747 85.703 14.8747C84.9156 14.8747 84.2593 14.601 83.725 14.0573C83.2018 13.5116 82.9394 12.8273 82.9394 11.9892C82.9394 11.1529 83.2018 10.4667 83.725 9.92112ZM91.6186 11.1024L91.5792 9.70917H91.6186L95.2898 15.6003H96.2591V8.37788H95.331V12.604L95.3703 13.9972H95.331L91.8211 8.37788H90.6905V15.6003H91.6186V11.1024Z" fill="black" stroke="black" stroke-width="0.26666" stroke-miterlimit="10"/>
</svg>

