<svg width="99" height="60" viewBox="0 0 99 60" fill="none" xmlns="http://www.w3.org/2000/svg">
<path d="M7.45346 49.5234H0.736809V51.6617H3.95934V51.9864L3.92691 52.0084L0.669922 54.317V56.4172H7.40279V54.271H4.10324V53.9543L4.13567 53.9322L7.45346 51.6136V49.5234Z" fill="white"/>
<path d="M12.2852 49.5234H9.64844V56.4153H12.2852V49.5234Z" fill="white"/>
<path d="M19.3462 56.4172H22.3377V49.5234H19.7759V52.7099H19.407L19.4009 52.6979L17.6701 49.5234H14.6016V56.4172H17.1634V53.231H17.5383L19.3462 56.4172Z" fill="white"/>
<path d="M28.3614 49.5224H24.6543V56.414H28.3614C30.9557 56.414 32.2709 55.2537 32.2709 52.9674C32.2709 50.6808 30.9921 49.5205 28.3614 49.5205V49.5224ZM28.3694 54.2599H27.3014V51.6689H28.3694C29.2024 51.6689 29.624 52.1056 29.624 52.9693C29.624 54.0374 28.941 54.2599 28.3694 54.2599Z" fill="white"/>
<path d="M39.3806 55.6515L39.6095 56.4151H42.3192L39.8467 49.5234H36.0526L33.5801 56.4151H36.2898L36.5268 55.6515H39.3806ZM37.1106 53.7497L37.6638 51.9461H38.2436L38.2497 51.9643L38.8071 53.7818H37.1005L37.1106 53.7497Z" fill="white"/>
<path d="M49.9619 55.6114H50.1221L50.1646 56.4171H51.407V52.5594H47.6496V53.6658H48.9122L48.8736 53.7678C48.7582 54.0704 48.4603 54.4291 47.688 54.4291H47.6496C46.8002 54.4291 46.2084 53.8299 46.2084 52.9703C46.2084 52.1106 46.7963 51.5114 47.7427 51.5114C48.3082 51.5114 48.6689 51.7879 48.7824 51.9803H51.4131C51.1436 49.9944 49.2343 49.2891 47.6738 49.2891C45.1526 49.2891 43.5859 50.6997 43.5859 52.9703C43.5859 55.2408 45.1626 56.6517 47.4185 56.6517C48.4926 56.6517 49.3884 56.2928 49.9377 55.6395L49.9599 55.6114H49.9619Z" fill="white"/>
<path d="M56.4022 49.5234H53.7656V56.4153H56.4022V49.5234Z" fill="white"/>
<path d="M64.6896 56.6509C64.7161 56.6509 64.7403 56.6509 64.7667 56.6509C66.3011 56.6509 67.3245 56.3783 67.8939 55.8191C68.2607 55.4604 68.4371 54.9856 68.4371 54.3703C68.4371 52.6449 66.9171 52.4585 65.5754 52.2941H65.5591C65.3363 52.2642 65.1255 52.238 64.9249 52.2059L64.179 52.0878C63.8728 52.0516 63.7129 51.9134 63.7168 51.6911C63.7168 51.5327 63.8386 51.266 64.6491 51.266C65.3747 51.266 65.7801 51.4505 65.8875 51.8272H68.2385C68.2527 51.0617 68.0683 50.4927 67.673 50.0878C67.1318 49.5348 66.2179 49.2861 64.7099 49.2861C62.4399 49.2861 61.1895 50.0878 61.1895 51.5428C61.1895 53.268 62.6224 53.4585 63.885 53.6269C64.0188 53.6449 64.1506 53.6628 64.2802 53.6808L65.2228 53.8231C65.6403 53.8713 65.8369 54.0076 65.8227 54.2422C65.8227 54.3181 65.7921 54.3842 65.7334 54.4424C65.5732 54.5967 65.2106 54.6729 64.6916 54.6609C63.8405 54.6528 63.4373 54.4765 63.3925 54.0917H61.0354C61.0112 54.8433 61.1853 55.4044 61.5705 55.803C62.1198 56.3764 63.113 56.6447 64.6938 56.6488L64.6896 56.6509Z" fill="white"/>
<path d="M77.1558 51.5616V49.5234H70.6094V56.4172H77.1558V54.3791H73.246V53.766H77.0037V52.1828H73.246V51.5616H77.1558Z" fill="white"/>
<path d="M86.6418 49.5234H79.0273V51.6617H81.5202V56.4172H84.1489V51.6617H86.6418V49.5234Z" fill="white"/>
<path d="M65.5953 26.6489H47.9749V24.6069H64.6266L59.5395 13.8936H47.9749V11.8515H58.5708L52.9424 0H37.0039V38.5003H71.2236L65.5953 26.6489Z" fill="white"/>
<path d="M98.4226 0H55.9824L61.4383 11.8515H73.9902V38.5003H85.9742V11.8515H98.4226V0Z" fill="white"/>
<path d="M34.2643 0H0V11.8515H16.5221L0 26.6489V38.5003H34.2643V26.6489H17.7422L34.2643 11.8515V0Z" fill="white"/>
</svg>
