<svg width="128" height="128" viewBox="0 0 128 128" fill="none" xmlns="http://www.w3.org/2000/svg">
<rect width="128" height="128" rx="24" fill="#EFF6FF"/>
<path d="M32.7979 57.6659L77.426 31.6733C80.6691 29.7845 84.816 30.9054 86.6884 34.177L101.606 60.2415C103.478 63.5131 102.367 67.6964 99.1237 69.5853L54.4956 95.5778C51.2526 97.4668 47.1057 96.3459 45.2333 93.0742L30.3161 67.0098C28.4437 63.7381 29.5548 59.5547 32.7979 57.6659Z" fill="url(#paint0_linear_1334_7170)"/>
<path d="M87.368 35.3626L30.9956 68.1953L36.42 77.6733L92.7925 44.8405L87.368 35.3626Z" fill="url(#paint1_radial_1334_7170)"/>
<path d="M59.4616 76.8912L50.0663 82.3633C49.4176 82.741 48.5882 82.5168 48.2137 81.8625C47.8392 81.2082 48.0615 80.3715 48.7101 79.9937L58.1055 74.5216C58.7541 74.1438 59.5835 74.368 59.958 75.0223C60.3325 75.6767 60.1102 76.5134 59.4616 76.8912Z" fill="#FAFAFA"/>
<path d="M69.2201 77.5263L52.7782 87.1025C52.1296 87.4803 51.3001 87.2561 50.9256 86.6018C50.5512 85.9475 50.7734 85.1107 51.422 84.733L67.8639 75.1568C68.5126 74.779 69.342 75.0032 69.7165 75.6575C70.091 76.3118 69.8687 77.1486 69.2201 77.5263Z" fill="#FAFAFA"/>
<path d="M90.4815 58.0504V92.293C90.4815 95.4449 87.9322 98.0002 84.7874 98.0002H30.6941C27.5493 98.0002 25 95.4449 25 92.293V58.0504C25 54.8985 27.5493 52.3433 30.6941 52.3433H84.7875C87.932 52.3433 90.4815 54.8985 90.4815 58.0504Z" fill="url(#paint2_linear_1334_7170)"/>
<path d="M90.4815 65.1851V92.2938C90.4815 95.4457 87.9322 98.001 84.7874 98.001H30.6941C27.5493 98.001 25 95.4457 25 92.2938V65.1851H90.4815Z" fill="url(#paint3_linear_1334_7170)"/>
<path d="M44.8329 70.8932H33.6413C32.8009 70.8932 32.1196 70.2103 32.1196 69.368V61.0042C32.1196 60.1619 32.8009 59.479 33.6413 59.479H44.8328C45.6731 59.479 46.3544 60.1619 46.3544 61.0042V69.3677C46.3547 70.2103 45.6733 70.8932 44.8329 70.8932Z" fill="url(#paint4_radial_1334_7170)"/>
<path d="M46.3547 65.1851V69.3669C46.3547 70.2092 45.6734 70.8921 44.833 70.8921H33.6413C32.8009 70.8921 32.1196 70.2092 32.1196 69.3669V65.1851H46.3547Z" fill="url(#paint5_radial_1334_7170)"/>
<path d="M41.7272 86.5862C41.7272 87.1772 41.2491 87.6563 40.6595 87.6563H32.1184C31.5288 87.6563 31.0508 87.1772 31.0508 86.5862C31.0508 85.9953 31.5288 85.5161 32.1184 85.5161H40.6595C41.2491 85.5162 41.7272 85.9953 41.7272 86.5862ZM54.8946 85.5162H46.3535C45.7639 85.5162 45.2858 85.9954 45.2858 86.5863C45.2858 87.1773 45.7639 87.6565 46.3535 87.6565H54.8946C55.4842 87.6565 55.9623 87.1773 55.9623 86.5863C55.9623 85.9954 55.4842 85.5162 54.8946 85.5162ZM69.1297 85.5162H60.5886C59.999 85.5162 59.5209 85.9954 59.5209 86.5863C59.5209 87.1773 59.999 87.6565 60.5886 87.6565H69.1297C69.7193 87.6565 70.1973 87.1773 70.1973 86.5863C70.1973 85.9954 69.7194 85.5162 69.1297 85.5162ZM83.3648 85.5162H74.8237C74.2341 85.5162 73.7561 85.9954 73.7561 86.5863C73.7561 87.1773 74.2341 87.6565 74.8237 87.6565H83.3648C83.9544 87.6565 84.4325 87.1773 84.4325 86.5863C84.4325 85.9954 83.9544 85.5162 83.3648 85.5162Z" fill="url(#paint6_radial_1334_7170)"/>
<path d="M39.9484 67.3249H38.525C37.3458 67.3249 36.3896 66.3667 36.3896 65.1846C36.3896 64.0028 37.3457 63.0444 38.525 63.0444H39.9484C41.1276 63.0444 42.0837 64.0026 42.0837 65.1846C42.0836 66.3665 41.1276 67.3249 39.9484 67.3249Z" fill="#54A0FF"/>
<path d="M76.0345 65.1856C76.0345 65.7765 75.5564 66.2557 74.9668 66.2557H74.8245C74.2349 66.2557 73.7568 65.7765 73.7568 65.1856C73.7568 64.5946 74.2349 64.1155 74.8245 64.1155H74.9668C75.5564 64.1155 76.0345 64.5946 76.0345 65.1856ZM78.3491 61.7909C77.8392 61.4948 77.1857 61.669 76.89 62.1805C76.5944 62.6918 76.7683 63.3466 77.2786 63.643C77.8282 63.9621 78.1698 64.5532 78.1698 65.1857C78.1698 65.8182 77.8285 66.4092 77.2786 66.7284C76.7685 67.0248 76.5945 67.6796 76.89 68.1909C77.0879 68.5333 77.4464 68.7248 77.8148 68.7248C77.9964 68.7248 78.1804 68.6783 78.349 68.5805C79.5554 67.8799 80.3049 66.5791 80.3049 65.1858C80.3049 63.7926 79.5555 62.4915 78.3491 61.7909ZM81.1956 59.3178C80.6856 59.0221 80.0323 59.1964 79.7369 59.708C79.4414 60.2195 79.6158 60.8741 80.1262 61.1701C81.5537 61.9979 82.4404 63.5366 82.4404 65.1854C82.4404 66.8343 81.5537 68.3731 80.1263 69.201C79.616 69.4971 79.4416 70.1517 79.737 70.6631C79.9349 71.006 80.2935 71.1974 80.6621 71.1974C80.8435 71.1974 81.0275 71.1509 81.1959 71.0533C83.2807 69.844 84.5757 67.5957 84.5757 65.1854C84.5757 62.7751 83.2804 60.527 81.1956 59.3178Z" fill="#3982DD"/>
<defs>
<linearGradient id="paint0_linear_1334_7170" x1="86.4999" y1="50.0002" x2="32.1526" y2="78.3342" gradientUnits="userSpaceOnUse">
<stop stop-color="#9BC7FE"/>
<stop offset="1" stop-color="#378CF7"/>
</linearGradient>
<radialGradient id="paint1_radial_1334_7170" cx="0" cy="0" r="1" gradientUnits="userSpaceOnUse" gradientTransform="translate(78.7749 41.121) rotate(139.677) scale(58.3352 17.5774)">
<stop stop-color="#FFE0B9"/>
<stop offset="1" stop-color="#DCAD70"/>
</radialGradient>
<linearGradient id="paint2_linear_1334_7170" x1="58" y1="60" x2="108.5" y2="59.5" gradientUnits="userSpaceOnUse">
<stop stop-color="#9BC7FE"/>
<stop offset="1" stop-color="#378CF7"/>
</linearGradient>
<linearGradient id="paint3_linear_1334_7170" x1="76" y1="71.9998" x2="20.7043" y2="98.3799" gradientUnits="userSpaceOnUse">
<stop stop-color="#6AACFF"/>
<stop offset="1" stop-color="#3072C5"/>
</linearGradient>
<radialGradient id="paint4_radial_1334_7170" cx="0" cy="0" r="1" gradientUnits="userSpaceOnUse" gradientTransform="translate(44.1029 60.1596) rotate(139.474) scale(16.4641 14.2044)">
<stop stop-color="#FFE0B9"/>
<stop offset="1" stop-color="#DCAD70"/>
</radialGradient>
<radialGradient id="paint5_radial_1334_7170" cx="0" cy="0" r="1" gradientUnits="userSpaceOnUse" gradientTransform="translate(41.2921 65.1851) rotate(146.38) scale(13.984 14.9658)">
<stop stop-color="#FFF2E0"/>
<stop offset="1" stop-color="#FFC984"/>
</radialGradient>
<radialGradient id="paint6_radial_1334_7170" cx="0" cy="0" r="1" gradientUnits="userSpaceOnUse" gradientTransform="translate(65.4479 85.5161) rotate(176.196) scale(43.7651 6.72529)">
<stop stop-color="#FFF2E0"/>
<stop offset="1" stop-color="#FFC984"/>
</radialGradient>
</defs>
</svg>
