<svg width="128" height="128" viewBox="0 0 128 128" fill="none" xmlns="http://www.w3.org/2000/svg">
<rect width="128" height="128" rx="24" fill="#EFF6FF"/>
<g clip-path="url(#clip0_1334_7130)">
<path d="M35.9038 92.0108L29.2055 53.9815C29.1409 53.6145 29.1005 53.2435 29.0849 52.8712C28.9853 48.5596 32.0812 44.8353 36.3383 44.1453L49.2642 41.8643L48.9142 92.0108H35.9038Z" fill="url(#paint0_linear_1334_7130)"/>
<path d="M85.652 90.3453C85.4279 91.2758 84.6751 91.986 83.7331 92.1556L45.6917 98.866C43.2939 99.2845 40.832 98.6503 38.935 97.1253C37.0379 95.6002 35.8895 93.3321 35.7831 90.9004C35.688 86.7782 38.5261 83.1661 42.5538 82.2832L53.2107 85.2763H53.1986L43.6038 86.978C42.5337 87.1661 41.6043 87.8241 41.0713 88.7708C40.5383 89.7176 40.4578 90.8535 40.852 91.866C41.5347 93.4967 43.2684 94.424 45.0038 94.0866L74.0779 88.9573L85.652 90.3453Z" fill="#3982DD"/>
<path d="M53.1987 85.2764L43.6039 86.9781C42.5338 87.1662 41.6044 87.8241 41.0714 88.7709C40.5384 89.7177 40.4579 90.8536 40.8522 91.866C41.5348 93.4967 43.2686 94.4241 45.0039 94.0867L74.078 88.9574L53.1987 85.2764Z" fill="url(#paint1_radial_1334_7130)"/>
<path d="M44.48 69.0325L51.1867 30.9984C51.4268 29.691 52.6725 28.819 53.9831 29.0408L91.7312 35.6968C95.9914 36.3874 99.0897 40.1141 98.9907 44.4287C98.9743 44.7995 98.9339 45.1687 98.87 45.5343L92.1633 83.5684L44.48 69.0325Z" fill="url(#paint2_linear_1334_7130)"/>
<path d="M98.9882 44.4228C98.9738 44.7952 98.9335 45.1663 98.8675 45.5331L92.1572 83.5624L82.852 80.7262L90.8296 35.54L91.7347 35.6969C95.9899 36.3903 99.084 40.1125 98.9882 44.4228Z" fill="url(#paint3_linear_1334_7130)"/>
<path d="M83.8393 41.6396C83.7685 41.6395 83.6978 41.6335 83.628 41.6215L56.2906 36.8011C55.6737 36.649 55.2804 36.0446 55.3912 35.4189C55.502 34.7932 56.079 34.3606 56.7106 34.4296L84.0468 39.2439C84.6634 39.3519 85.095 39.9133 85.041 40.5369C84.9869 41.1604 84.4652 41.6392 83.8393 41.6396Z" fill="url(#paint4_radial_1334_7130)"/>
<path d="M78.0365 46.7402C77.9656 46.7403 77.8949 46.7338 77.8253 46.7209L59.997 43.5818C59.3556 43.4517 58.9347 42.834 59.0483 42.1895C59.1619 41.5449 59.7685 41.1084 60.4158 41.2054L78.2453 44.3433C78.8654 44.4481 79.3011 45.0115 79.2465 45.6381C79.1919 46.2646 78.6654 46.7442 78.0365 46.7402Z" fill="url(#paint5_radial_1334_7130)"/>
<path d="M80.5563 52.1303L55.5916 47.7203C54.9351 47.6043 54.3088 48.0425 54.1928 48.699L52.0928 60.587C51.9769 61.2435 52.4151 61.8698 53.0716 61.9858L78.0363 66.3958C78.6928 66.5118 79.3191 66.0735 79.4351 65.417L81.5351 53.529C81.6511 52.8725 81.2128 52.2462 80.5563 52.1303Z" fill="url(#paint6_radial_1334_7130)"/>
<path d="M85.0247 73.7262L47.273 67.0762C47.1335 67.0522 46.9921 67.0401 46.8506 67.04C45.5997 67.0432 44.5584 68.0015 44.4517 69.2479C44.3449 70.4942 45.2081 71.6156 46.4402 71.8314L84.4695 78.5297C85.5387 78.7233 86.4653 79.3849 86.9955 80.3333C87.5258 81.2817 87.6041 82.4175 87.2092 83.4297C86.5302 85.0568 84.7991 85.9804 83.0695 85.6383L45.185 78.9642C45.0455 78.9402 44.9042 78.928 44.7626 78.928C43.5094 78.9249 42.4623 79.8814 42.3522 81.1298C42.2422 82.3782 43.1058 83.5031 44.3402 83.7193L82.3816 90.4176C84.7776 90.8377 87.2385 90.2056 89.1355 88.6829C91.0325 87.1602 92.182 84.8943 92.2902 82.4642C92.3849 78.1477 89.286 74.4207 85.0247 73.7262Z" fill="#3982DD"/>
<path d="M87.2092 83.4298C86.5302 85.0569 84.7991 85.9805 83.0695 85.6384L45.1851 78.9643L46.4402 71.8315L84.4695 78.5298C85.5387 78.7234 86.4653 79.385 86.9955 80.3334C87.5258 81.2818 87.6042 82.4176 87.2092 83.4298Z" fill="url(#paint7_radial_1334_7130)"/>
</g>
<defs>
<linearGradient id="paint0_linear_1334_7130" x1="44.8009" y1="52.2779" x2="24.0717" y2="54.2725" gradientUnits="userSpaceOnUse">
<stop stop-color="#6AACFF"/>
<stop offset="1" stop-color="#3072C5"/>
</linearGradient>
<radialGradient id="paint1_radial_1334_7130" cx="0" cy="0" r="1" gradientUnits="userSpaceOnUse" gradientTransform="translate(68.7835 85.8058) rotate(164.209) scale(30.5819 13.9885)">
<stop stop-color="#FFE0B9"/>
<stop offset="1" stop-color="#DCAD70"/>
</radialGradient>
<linearGradient id="paint2_linear_1334_7130" x1="59.4999" y1="54.0002" x2="109.041" y2="64.8098" gradientUnits="userSpaceOnUse">
<stop stop-color="#9BC7FE"/>
<stop offset="1" stop-color="#378CF7"/>
</linearGradient>
<linearGradient id="paint3_linear_1334_7130" x1="59.4999" y1="54.0002" x2="109.041" y2="64.8098" gradientUnits="userSpaceOnUse">
<stop stop-color="#9BC7FE"/>
<stop offset="1" stop-color="#378CF7"/>
</linearGradient>
<radialGradient id="paint4_radial_1334_7130" cx="0" cy="0" r="1" gradientUnits="userSpaceOnUse" gradientTransform="translate(74.4927 34.4224) rotate(158.032) scale(26.1743 21.0775)">
<stop stop-color="#FFF2E0"/>
<stop offset="1" stop-color="#FFC984"/>
</radialGradient>
<radialGradient id="paint5_radial_1334_7130" cx="0" cy="0" r="1" gradientUnits="userSpaceOnUse" gradientTransform="translate(72.0596 41.1919) rotate(155.532) scale(18.1741 15.9032)">
<stop stop-color="#FFF2E0"/>
<stop offset="1" stop-color="#FFC984"/>
</radialGradient>
<radialGradient id="paint6_radial_1334_7130" cx="0" cy="0" r="1" gradientUnits="userSpaceOnUse" gradientTransform="translate(72.0211 50.6225) rotate(149.149) scale(30.036 34.4976)">
<stop stop-color="#FFF2E0"/>
<stop offset="1" stop-color="#FFC984"/>
</radialGradient>
<radialGradient id="paint7_radial_1334_7130" cx="0" cy="0" r="1" gradientUnits="userSpaceOnUse" gradientTransform="translate(80.7715 72.6591) rotate(160.71) scale(39.3746 21.4451)">
<stop stop-color="#FFE0B9"/>
<stop offset="1" stop-color="#DCAD70"/>
</radialGradient>
<clipPath id="clip0_1334_7130">
<rect width="70" height="70" fill="white" transform="translate(29 29)"/>
</clipPath>
</defs>
</svg>
