<svg width="128" height="128" viewBox="0 0 128 128" fill="none" xmlns="http://www.w3.org/2000/svg">
<rect width="128" height="128" rx="24" fill="#EFF6FF"/>
<path d="M96.9835 62.5552C96.9835 95.3571 97.0982 93.1626 96.7254 94.1092C96.5442 94.6451 96.2564 95.1386 95.8794 95.5601C95.5023 95.9817 95.0438 96.3224 94.5315 96.5618C93.3127 97.1499 98.1306 96.9778 35.3252 96.9778C34.5119 96.9782 33.7152 96.748 33.0274 96.3139C32.3397 95.8798 31.789 95.2596 31.4393 94.5252C30.8514 93.2343 31.0235 95.271 31.0235 62.5552C32.9449 63.8173 50.6537 75.3776 64.0035 84.0693C87.7634 68.6078 63.3439 84.5139 96.9835 62.5552Z" fill="url(#paint0_linear_1334_7075)"/>
<path d="M89.6425 63.9873C89.6425 64.1307 90.2734 63.6287 81.211 69.5523C81.211 69.3372 80.7522 69.7244 89.6425 63.9873Z" fill="#FFDE76"/>
<path d="M53.0762 76.8962L33.4746 96.5601C32.5862 96.1297 31.8688 95.4121 31.4385 94.5234L50.6099 75.3472L53.0762 76.8962Z" fill="#3982DD"/>
<path d="M96.5516 94.5113C96.1445 95.4147 95.4272 96.1424 94.5298 96.5623L74.9282 76.8984L77.3946 75.292L96.5516 94.5113Z" fill="#3982DD"/>
<path d="M79.7746 31V73.7844L64.0016 84.0682L48.2285 73.7844V31H79.7746Z" fill="url(#paint1_radial_1334_7075)"/>
<path d="M79.7749 31V70.3565C74.7849 73.6267 78.1116 71.4466 64.0019 80.6403L51.0967 72.2354V31H79.7749Z" fill="url(#paint2_radial_1334_7075)"/>
<path d="M72.6085 48.2137V40.7985C72.003 40.5846 71.453 40.2379 70.9989 39.7837C70.5449 39.3295 70.1982 38.7794 69.9844 38.1737H58.0256C57.8118 38.7794 57.4651 39.3295 57.0111 39.7837C56.557 40.2379 56.007 40.5846 55.4015 40.7985V48.2137C55.4015 48.594 55.2504 48.9589 54.9815 49.2278C54.7126 49.4968 54.3479 49.6479 53.9676 49.6479C53.5873 49.6479 53.2226 49.4968 52.9537 49.2278C52.6848 48.9589 52.5337 48.594 52.5337 48.2137V39.608C52.5337 39.2276 52.6848 38.8628 52.9537 38.5938C53.2226 38.3248 53.5873 38.1737 53.9676 38.1737C54.3479 38.1737 54.7126 38.0226 54.9815 37.7536C55.2504 37.4847 55.4015 37.1198 55.4015 36.7395C55.4015 36.3591 55.5526 35.9942 55.8215 35.7253C56.0904 35.4563 56.4551 35.3052 56.8354 35.3052H71.1746C71.5549 35.3052 71.9196 35.4563 72.1885 35.7253C72.4574 35.9942 72.6085 36.3591 72.6085 36.7395C72.6085 37.1198 72.7596 37.4847 73.0285 37.7536C73.2974 38.0226 73.6621 38.1737 74.0424 38.1737C74.4227 38.1737 74.7874 38.3248 75.0563 38.5938C75.3252 38.8628 75.4763 39.2276 75.4763 39.608V48.2137C75.4763 48.594 75.3252 48.9589 75.0563 49.2278C74.7874 49.4968 74.4227 49.6479 74.0424 49.6479C73.6621 49.6479 73.2974 49.4968 73.0285 49.2278C72.7596 48.9589 72.6085 48.594 72.6085 48.2137Z" fill="url(#paint3_radial_1334_7075)"/>
<path d="M64.005 72.5964C61.7362 72.5964 59.5183 71.9234 57.6319 70.6626C55.7454 69.4018 54.2751 67.6098 53.4069 65.5131C52.5387 63.4165 52.3115 61.1094 52.7541 58.8837C53.1967 56.6579 54.2893 54.6134 55.8936 53.0087C57.4979 51.404 59.5419 50.3112 61.7671 49.8684C63.9923 49.4257 66.2988 49.6529 68.3949 50.5214C70.491 51.3898 72.2826 52.8605 73.5431 54.7474C74.8035 56.6344 75.4763 58.8528 75.4763 61.1222C75.4763 64.1653 74.2677 67.0838 72.1164 69.2356C69.9652 71.3875 67.0474 72.5964 64.005 72.5964ZM64.005 52.5165C62.3034 52.5165 60.64 53.0212 59.2252 53.9668C57.8103 54.9124 56.7076 56.2564 56.0564 57.8289C55.4052 59.4014 55.2349 61.1317 55.5668 62.801C55.8988 64.4704 56.7182 66.0038 57.9214 67.2073C59.1246 68.4108 60.6576 69.2304 62.3266 69.5625C63.9955 69.8945 65.7253 69.7241 67.2974 69.0727C68.8695 68.4214 70.2132 67.3184 71.1585 65.9032C72.1039 64.488 72.6085 62.8242 72.6085 61.1222C72.6085 58.8398 71.7021 56.6509 70.0886 55.037C68.4751 53.4232 66.2868 52.5165 64.005 52.5165Z" fill="url(#paint4_radial_1334_7075)"/>
<path d="M64.006 45.3441C63.6983 45.3457 63.3982 45.2481 63.1501 45.0659C62.9021 44.8837 62.7192 44.6265 62.6286 44.3323C62.5379 44.0382 62.5443 43.7226 62.6467 43.4324C62.7492 43.1421 62.9423 42.8925 63.1975 42.7205C63.4527 42.5484 63.7565 42.4631 64.0639 42.4771C64.3714 42.491 64.6661 42.6036 64.9047 42.798C65.1433 42.9925 65.313 43.2586 65.3887 43.5569C65.4644 43.8553 65.4422 44.1701 65.3252 44.4549C65.2176 44.7168 65.035 44.941 64.8002 45.0993C64.5654 45.2575 64.2891 45.3427 64.006 45.3441Z" fill="url(#paint5_radial_1334_7075)"/>
<path d="M95.8367 39.7643C91.5349 55.9859 90.015 61.4792 88.1939 68.292L79.7769 73.7853V35.4614L95.8367 39.7643Z" fill="url(#paint6_radial_1334_7075)"/>
<path d="M95.8351 39.7651C95.2328 41.9883 91.2466 56.7039 89.2821 64.2195L82.6431 68.5224V36.2368L95.8351 39.7651Z" fill="url(#paint7_radial_1334_7075)"/>
<path d="M89.4558 46.9634L87.2332 55.2678C87.1842 55.4505 87.0998 55.6218 86.9847 55.7719C86.8695 55.9219 86.726 56.0478 86.5622 56.1424C86.3984 56.2369 86.2176 56.2983 86.0301 56.323C85.8427 56.3476 85.6521 56.3351 85.4695 56.2862C85.2868 56.2372 85.1156 56.1527 84.9656 56.0376C84.8156 55.9224 84.6897 55.7788 84.5952 55.615C84.5006 55.4512 84.4393 55.2703 84.4146 55.0828C84.39 54.8953 84.4025 54.7047 84.4514 54.522L86.3729 47.3506C85.8495 46.9819 85.4129 46.5033 85.0935 45.9485C84.774 45.3936 84.5793 44.7757 84.5231 44.1379L79.7769 42.89V40.0215C80.1067 40.0215 79.7769 40.0215 86.4159 41.7426C86.599 41.7909 86.7707 41.8749 86.9211 41.9899C87.0716 42.1049 87.1977 42.2485 87.2924 42.4125C87.387 42.5765 87.4483 42.7577 87.4726 42.9455C87.4969 43.1333 87.4837 43.3241 87.434 43.5068C87.3839 43.6885 87.3702 43.8784 87.3936 44.0655C87.4169 44.2525 87.4769 44.4332 87.5702 44.597C87.6634 44.7609 87.788 44.9047 87.9369 45.0204C88.0857 45.136 88.2559 45.2211 88.4377 45.2709C88.7919 45.3688 89.095 45.599 89.2844 45.9139C89.4738 46.2289 89.5352 46.6045 89.4558 46.9634Z" fill="url(#paint8_radial_1334_7075)"/>
<path d="M96.9833 62.5538L88.1934 68.2909L90.8031 58.5234L96.9833 62.5538Z" fill="white"/>
<path d="M48.2327 35.4614V73.7853L39.8156 68.292C36.5463 56.0433 32.6747 41.6432 32.1729 39.7643L48.2327 35.4614Z" fill="url(#paint9_radial_1334_7075)"/>
<path d="M48.2289 35.4614V70.4864L42.6797 66.8577C36.7576 44.6264 41.0594 60.9198 35.209 38.9467L48.2289 35.4614Z" fill="url(#paint10_radial_1334_7075)"/>
<path d="M41.6352 47.3662L43.5566 54.5376C43.6555 54.9066 43.6038 55.2997 43.4129 55.6306C43.222 55.9614 42.9075 56.2028 42.5386 56.3017C42.1697 56.4006 41.7766 56.3489 41.4459 56.1579C41.1151 55.967 40.8737 55.6524 40.7748 55.2834L38.5523 46.9646C38.5055 46.779 38.4963 46.5859 38.5254 46.3967C38.5544 46.2075 38.6209 46.026 38.7212 45.8629C38.8214 45.6998 38.9532 45.5585 39.1089 45.4472C39.2646 45.3359 39.441 45.2568 39.6277 45.2148C39.8095 45.165 39.9797 45.0799 40.1286 44.9642C40.2774 44.8486 40.402 44.7047 40.4952 44.5409C40.5885 44.377 40.6485 44.1964 40.6719 44.0093C40.6952 43.8222 40.6815 43.6324 40.6315 43.4506C40.5817 43.2679 40.5685 43.0772 40.5928 42.8893C40.6171 42.7015 40.6784 42.5204 40.773 42.3564C40.8677 42.1924 40.9939 42.0487 41.1443 41.9337C41.2947 41.8188 41.4665 41.7347 41.6495 41.6865C48.4606 39.8649 47.9874 39.9653 48.2886 39.9653V42.8339L43.5423 44.0961C43.4876 44.7487 43.288 45.3809 42.9581 45.9466C42.6281 46.5123 42.1762 46.9973 41.6352 47.3662Z" fill="url(#paint11_radial_1334_7075)"/>
<path d="M39.8133 68.2909L31.0234 62.5538L37.2036 58.5234C38.3794 62.8836 38.8669 64.7339 39.8133 68.2909Z" fill="white"/>
<path d="M38.9105 64.8934L35.3257 62.5555L37.8494 60.9204L38.9105 64.8934Z" fill="white"/>
<path d="M89.0957 64.8934L92.6805 62.5555L90.1568 60.9204L89.0957 64.8934Z" fill="white"/>
<defs>
<linearGradient id="paint0_linear_1334_7075" x1="87.3934" y1="59.8231" x2="76.2052" y2="100.098" gradientUnits="userSpaceOnUse">
<stop stop-color="#9BC7FE"/>
<stop offset="1" stop-color="#378CF7"/>
</linearGradient>
<radialGradient id="paint1_radial_1334_7075" cx="0" cy="0" r="1" gradientUnits="userSpaceOnUse" gradientTransform="translate(74.7849 34.1644) rotate(119.143) scale(56.9494 42.3113)">
<stop stop-color="#FFE0B9"/>
<stop offset="1" stop-color="#DCAD70"/>
</radialGradient>
<radialGradient id="paint2_radial_1334_7075" cx="0" cy="0" r="1" gradientUnits="userSpaceOnUse" gradientTransform="translate(69.5758 31) rotate(109.206) scale(71.3153 51.4243)">
<stop stop-color="#FFF2E0"/>
<stop offset="1" stop-color="#FFC984"/>
</radialGradient>
<radialGradient id="paint3_radial_1334_7075" cx="0" cy="0" r="1" gradientUnits="userSpaceOnUse" gradientTransform="translate(71.8474 36.1604) rotate(146.316) scale(24.2394 19.5398)">
<stop stop-color="#FFE0B9"/>
<stop offset="1" stop-color="#DCAD70"/>
</radialGradient>
<radialGradient id="paint4_radial_1334_7075" cx="0" cy="0" r="1" gradientUnits="userSpaceOnUse" gradientTransform="translate(71.8474 51.0164) rotate(133.159) scale(29.4868 25.7)">
<stop stop-color="#FFE0B9"/>
<stop offset="1" stop-color="#DCAD70"/>
</radialGradient>
<radialGradient id="paint5_radial_1334_7075" cx="0" cy="0" r="1" gradientUnits="userSpaceOnUse" gradientTransform="translate(64.9792 42.6466) rotate(133.159) scale(3.68585 3.2125)">
<stop stop-color="#FFE0B9"/>
<stop offset="1" stop-color="#DCAD70"/>
</radialGradient>
<radialGradient id="paint6_radial_1334_7075" cx="0" cy="0" r="1" gradientUnits="userSpaceOnUse" gradientTransform="translate(93.2965 37.7467) rotate(111.458) scale(38.5956 22.9529)">
<stop stop-color="#FFE0B9"/>
<stop offset="1" stop-color="#DCAD70"/>
</radialGradient>
<radialGradient id="paint7_radial_1334_7075" cx="0" cy="0" r="1" gradientUnits="userSpaceOnUse" gradientTransform="translate(91.1435 36.2368) rotate(103.841) scale(45.1111 24.322)">
<stop stop-color="#FFF2E0"/>
<stop offset="1" stop-color="#FFC984"/>
</radialGradient>
<radialGradient id="paint8_radial_1334_7075" cx="0" cy="0" r="1" gradientUnits="userSpaceOnUse" gradientTransform="translate(87.9534 40.9943) rotate(119.181) scale(17.5134 13.0225)">
<stop stop-color="#FFE0B9"/>
<stop offset="1" stop-color="#DCAD70"/>
</radialGradient>
<radialGradient id="paint9_radial_1334_7075" cx="0" cy="0" r="1" gradientUnits="userSpaceOnUse" gradientTransform="translate(45.6924 37.7467) rotate(111.458) scale(38.5956 22.9529)">
<stop stop-color="#FFE0B9"/>
<stop offset="1" stop-color="#DCAD70"/>
</radialGradient>
<radialGradient id="paint10_radial_1334_7075" cx="0" cy="0" r="1" gradientUnits="userSpaceOnUse" gradientTransform="translate(43.5985 35.4614) rotate(102.634) scale(48.6969 24.124)">
<stop stop-color="#FFF2E0"/>
<stop offset="1" stop-color="#FFC984"/>
</radialGradient>
<radialGradient id="paint11_radial_1334_7075" cx="0" cy="0" r="1" gradientUnits="userSpaceOnUse" gradientTransform="translate(46.7417 40.9415) rotate(119.24) scale(17.6016 13.1047)">
<stop stop-color="#FFE0B9"/>
<stop offset="1" stop-color="#DCAD70"/>
</radialGradient>
</defs>
</svg>
