<svg width="128" height="128" viewBox="0 0 128 128" fill="none" xmlns="http://www.w3.org/2000/svg">
<rect width="128" height="128" rx="24" fill="#EFF6FF"/>
<path fill-rule="evenodd" clip-rule="evenodd" d="M64 94C80.5685 94 94 80.5685 94 64C94 47.4315 80.5685 34 64 34C47.4315 34 34 47.4315 34 64C34 80.5685 47.4315 94 64 94ZM64 99C83.33 99 99 83.33 99 64C99 44.67 83.33 29 64 29C44.67 29 29 44.67 29 64C29 83.33 44.67 99 64 99Z" fill="url(#paint0_radial_1334_7058)"/>
<path d="M85.9701 85.9698L83.0872 83.0869V65.8292C83.0868 61.7665 81.7557 57.8158 79.2974 54.5812C76.8391 51.3466 73.389 49.0063 69.4746 47.9181L73.7943 40.6064H55.2086L59.5283 47.9181C55.614 49.0063 52.1638 51.3466 49.7055 54.5812C47.2472 57.8158 45.9161 61.7665 45.9158 65.8292V83.0869L43.0328 85.9698C42.6842 86.3184 42.4076 86.7324 42.2189 87.1879C42.0302 87.6435 41.9331 88.1317 41.9331 88.6248C41.9331 89.6206 42.3288 90.5756 43.0329 91.2797C43.7371 91.9839 44.6921 92.3795 45.6879 92.3795H83.315C84.3109 92.3795 85.2659 91.9839 85.97 91.2797C86.6742 90.5756 87.0698 89.6206 87.0698 88.6248C87.0699 88.1317 86.9727 87.6435 86.7841 87.1879C86.5954 86.7324 86.3188 86.3184 85.9701 85.9698Z" fill="url(#paint1_linear_1334_7058)"/>
<path d="M64.0581 84.4132H53.8803C52.824 84.4132 51.811 84.8328 51.0641 85.5796C50.3172 86.3265 49.8976 87.3395 49.8976 88.3957C49.8976 89.452 50.3172 90.4649 51.0641 91.2118C51.811 91.9587 52.824 92.3783 53.8803 92.3783H51.2252L36.1298 85.4641C35.4616 85.158 34.7266 85.0266 33.9937 85.0824C33.2609 85.1381 32.5542 85.3792 31.94 85.7828C31.3392 86.1777 30.8459 86.7158 30.5046 87.3485C30.1632 87.9813 29.9844 88.689 29.9844 89.408V89.6965C29.9843 90.5022 30.2087 91.292 30.6323 91.9774C31.0559 92.6627 31.6621 93.2166 32.3828 93.5768L47.8615 101.316C50.0735 102.422 52.5128 102.998 54.986 102.998H83.0864V84.4132C80.2459 82.7901 77.0373 81.921 73.7659 81.8886C70.4946 81.8562 67.2694 82.6616 64.3973 84.2282L64.0581 84.4132Z" fill="#8ABEFF"/>
<path d="M83.0869 84.4155H99.0175V103.001H83.0869V84.4155Z" fill="url(#paint2_radial_1334_7058)"/>
<path d="M89.7239 99.0166C91.1903 99.0166 92.3791 97.8279 92.3791 96.3616C92.3791 94.8952 91.1903 93.7065 89.7239 93.7065C88.2576 93.7065 87.0688 94.8952 87.0688 96.3616C87.0688 97.8279 88.2576 99.0166 89.7239 99.0166Z" fill="url(#paint3_radial_1334_7058)"/>
<path d="M50 92C50 91.4477 50.4477 91 51 91H65V93H51C50.4477 93 50 92.5523 50 92Z" fill="url(#paint4_linear_1334_7058)"/>
<path d="M71.9859 61.82L71.2795 64.3894H58L58.7205 61.82H71.9859ZM65.3744 77.0005L58.4097 68.9172L58.3956 66.695H61.7578C62.5772 66.695 63.2506 66.5468 63.778 66.2505C64.3148 65.945 64.7151 65.5329 64.9788 65.0144C65.2519 64.4959 65.3885 63.9126 65.3885 63.2644C65.3885 62.5885 65.2661 61.9913 65.0212 61.4728C64.7763 60.945 64.3855 60.5329 63.8486 60.2367C63.3118 59.9404 62.6007 59.7922 61.7154 59.7922H58.0141L58.8194 56.7783H61.7154C63.3919 56.7783 64.7857 57.0283 65.8971 57.5283C67.0178 58.0191 67.856 58.7367 68.4117 59.6811C68.9768 60.6163 69.2593 61.7459 69.2593 63.07C69.2593 64.2274 69.0616 65.2505 68.666 66.1394C68.2799 67.0191 67.6535 67.7367 66.7871 68.2922C65.9206 68.8478 64.781 69.2181 63.3683 69.4033L69.6831 76.8061V77.0005H65.3744ZM72 56.7783L71.2795 59.3478H60.3592L61.0797 56.7783H72Z" fill="url(#paint5_radial_1334_7058)"/>
<defs>
<radialGradient id="paint0_radial_1334_7058" cx="0" cy="0" r="1" gradientUnits="userSpaceOnUse" gradientTransform="translate(87.9279 33.1741) rotate(133.167) scale(89.9549 78.4037)">
<stop stop-color="#FFE0B9"/>
<stop offset="1" stop-color="#DCAD70"/>
</radialGradient>
<linearGradient id="paint1_linear_1334_7058" x1="80.4999" y1="36.5" x2="51.4999" y2="84" gradientUnits="userSpaceOnUse">
<stop stop-color="#9BC7FE"/>
<stop offset="1" stop-color="#378CF7"/>
</linearGradient>
<radialGradient id="paint2_radial_1334_7058" cx="0" cy="0" r="1" gradientUnits="userSpaceOnUse" gradientTransform="translate(97.8055 85.6254) rotate(128.632) scale(21.5463 19.5439)">
<stop stop-color="#9DC2FF"/>
<stop offset="1" stop-color="#3D7FEB"/>
</radialGradient>
<radialGradient id="paint3_radial_1334_7058" cx="0" cy="0" r="1" gradientUnits="userSpaceOnUse" gradientTransform="translate(91.5391 94.0232) rotate(133.167) scale(6.82388 5.94763)">
<stop stop-color="#FFE0B9"/>
<stop offset="1" stop-color="#DCAD70"/>
</radialGradient>
<linearGradient id="paint4_linear_1334_7058" x1="86.185" y1="78.154" x2="87.4106" y2="88.6969" gradientUnits="userSpaceOnUse">
<stop stop-color="#9BC7FE"/>
<stop offset="1" stop-color="#378CF7"/>
</linearGradient>
<radialGradient id="paint5_radial_1334_7058" cx="0" cy="0" r="1" gradientUnits="userSpaceOnUse" gradientTransform="translate(67.0211 56.7783) rotate(112.658) scale(29.7296 24.5319)">
<stop stop-color="#FFF2E0"/>
<stop offset="1" stop-color="#FFC984"/>
</radialGradient>
</defs>
</svg>
