<svg width="128" height="128" viewBox="0 0 128 128" fill="none" xmlns="http://www.w3.org/2000/svg">
<rect width="128" height="128" rx="24" fill="#EFF6FF"/>
<path d="M78.6519 47.4342C78.5897 47.4342 78.5264 47.4293 78.463 47.4193C76.8164 47.1604 75.5467 46.2456 74.3188 45.361C73.5828 44.8309 72.8875 44.33 72.1545 44.0035C69.7777 42.9451 67.2277 43.819 64.5747 46.6006C64.1142 47.0831 63.3502 47.101 62.8677 46.641C62.3852 46.1809 62.3672 45.4167 62.8272 44.9342C67.103 40.4514 70.7934 40.7543 73.1367 41.7979C74.097 42.2256 74.9272 42.8237 75.7302 43.4021C76.7742 44.1543 77.7605 44.8648 78.838 45.0343C79.4966 45.1379 79.9467 45.7559 79.8431 46.4145C79.7494 47.0095 79.2359 47.4342 78.6519 47.4342Z" fill="url(#paint0_linear_1334_7105)"/>
<path d="M77.1869 62.5883C76.8577 62.5883 76.5299 62.4546 76.2916 62.1913C74.6766 60.4071 74.0541 58.1513 73.4523 55.9697C73.2962 55.4041 73.1487 54.8697 72.9841 54.3416C72.2807 52.0847 70.7143 50.1474 68.8962 49.2855C67.5237 48.6352 66.0905 48.6028 64.6362 49.1893C64.0169 49.4386 63.3141 49.1394 63.0651 48.5213C62.8155 47.9028 63.1148 47.1994 63.733 46.95C65.8091 46.1127 67.9516 46.1658 69.9304 47.1036C72.3748 48.2622 74.378 50.6994 75.2893 53.623C75.4657 54.1891 75.6254 54.7677 75.7798 55.3274C76.331 57.325 76.8516 59.2119 78.0818 60.5708C78.5291 61.065 78.4913 61.8285 77.9969 62.276C77.7658 62.4852 77.4758 62.5883 77.1869 62.5883Z" fill="url(#paint1_linear_1334_7105)"/>
<path d="M64.3848 28.9842C62.8848 27.6642 61.149 27.2137 59.3493 28.3173C58.2476 28.9929 56.9504 29.0929 55.8409 28.4367C55.032 27.9582 54.1459 27.6943 53.2168 27.6943C52.2878 27.6943 51.4017 27.9584 50.5928 28.4367C49.4832 29.0929 48.1861 28.9929 47.0843 28.3173C45.2848 27.2139 43.5489 27.6643 42.0489 28.9842C39.6968 31.0542 38.8157 34.4773 41.664 39.3236C43.6998 42.7873 46.4337 44.9239 48.6868 45.1059C49.8997 46.6226 56.5342 46.6226 57.747 45.1059C60.0001 44.9239 62.734 42.7873 64.7698 39.3236C67.6179 34.4775 66.737 31.0542 64.3848 28.9842Z" fill="url(#paint2_linear_1334_7105)"/>
<path d="M62.1737 49.96H44.2591C44.2591 49.96 24 74.1932 24 84.0226C24 95.0189 33.7637 100.307 38.9828 100.307H67.4502C72.6691 100.307 82.433 95.0189 82.433 84.0226C82.4328 74.1932 62.1737 49.96 62.1737 49.96Z" fill="url(#paint3_linear_1334_7105)"/>
<path d="M53.2161 47.8283C52.1933 47.8283 51.2981 47.3152 50.8318 46.5052C50.1484 46.0265 49.1543 44.6935 48.3062 40.7197C48.0411 39.4782 47.8618 38.2863 47.7734 37.1776C47.7204 36.5129 48.2164 35.9311 48.8811 35.8782C49.5458 35.8232 50.1273 36.3211 50.1804 36.9857C50.2604 37.9899 50.4243 39.0765 50.6678 40.2157C51.2722 43.0485 51.9403 44.2226 52.1784 44.4796C52.5322 44.6124 52.8067 44.905 52.9136 45.2741C52.9537 45.4124 53.2054 45.414 53.2162 45.414C53.2268 45.414 53.4787 45.4124 53.5189 45.2741C53.6258 44.905 53.9006 44.6124 54.2542 44.4796C54.4923 44.2227 55.1603 43.0488 55.7648 40.2158C56.007 39.0811 56.1717 37.9936 56.2543 36.9833C56.3086 36.3188 56.8945 35.8241 57.5558 35.8785C58.2204 35.9329 58.7151 36.5155 58.6606 37.1801C58.5698 38.2933 58.39 39.4841 58.1261 40.7197C57.2779 44.6935 56.2837 46.0265 55.6001 46.5052C55.134 47.3154 54.2389 47.8283 53.2161 47.8283Z" fill="#3982DD"/>
<path d="M39.8691 46.8012C39.8691 48.5457 41.2834 49.9598 43.0277 49.9598H63.4043C65.1488 49.9598 66.5629 48.5455 66.5629 46.8012C66.5629 45.0566 65.1487 43.6426 63.4043 43.6426H43.0277C41.2832 43.6426 39.8691 45.0566 39.8691 46.8012Z" fill="url(#paint4_linear_1334_7105)"/>
<path d="M87.0452 92.5024H65.9661C63.8108 92.5024 62.0635 94.2498 62.0635 96.4051C62.0635 98.5604 63.8108 100.308 65.9661 100.308H87.0452C89.2005 100.308 90.9479 98.5604 90.9479 96.4051C90.9479 94.2496 89.2005 92.5024 87.0452 92.5024Z" fill="url(#paint5_radial_1334_7105)"/>
<path d="M87.0452 84.6968H65.9661C63.8108 84.6968 62.0635 86.4441 62.0635 88.5994C62.0635 90.7547 63.8108 92.5021 65.9661 92.5021H87.0452C89.2005 92.5021 90.9479 90.7547 90.9479 88.5994C90.9479 86.4441 89.2005 84.6968 87.0452 84.6968Z" fill="url(#paint6_radial_1334_7105)"/>
<path d="M103.476 94.452L92.9365 76.1971C91.8588 74.3306 89.472 73.6909 87.6052 74.7687C85.7387 75.8463 85.0992 78.2332 86.1768 80.0999L96.7163 98.3549C97.794 100.221 100.181 100.861 102.047 99.7834C103.914 98.7056 104.554 96.3187 103.476 94.452Z" fill="url(#paint7_radial_1334_7105)"/>
<path d="M60.7523 69.0389L59.9062 72.1166H44L44.863 69.0389H60.7523ZM52.833 87.2222L44.4907 77.54L44.4738 74.8782H48.5011C49.4826 74.8782 50.2892 74.7008 50.9209 74.3458C51.5639 73.9799 52.0434 73.4863 52.3592 72.8652C52.6864 72.2441 52.85 71.5454 52.85 70.7691C52.85 69.9595 52.7033 69.2441 52.41 68.623C52.1167 67.9908 51.6485 67.4973 51.0055 67.1424C50.3625 66.7875 49.5108 66.61 48.4504 66.61H44.0169L44.9814 63H48.4504C50.4584 63 52.128 63.2995 53.4591 63.8984C54.8016 64.4862 55.8056 65.3457 56.4712 66.477C57.148 67.5971 57.4865 68.9502 57.4865 70.5362C57.4865 71.9225 57.2496 73.148 56.7758 74.2128C56.3132 75.2664 55.563 76.1259 54.5252 76.7914C53.4873 77.4568 52.1223 77.9004 50.4302 78.1223L57.9941 86.9893V87.2222H52.833ZM60.7692 63L59.9062 66.0777H46.8259L47.6889 63H60.7692Z" fill="url(#paint8_radial_1334_7105)"/>
<defs>
<linearGradient id="paint0_linear_1334_7105" x1="86.1923" y1="44.4336" x2="53.3809" y2="43.7213" gradientUnits="userSpaceOnUse">
<stop stop-color="#6AACFF"/>
<stop offset="1" stop-color="#0F63CB"/>
</linearGradient>
<linearGradient id="paint1_linear_1334_7105" x1="84.0179" y1="54.8421" x2="54.8742" y2="54.6245" gradientUnits="userSpaceOnUse">
<stop stop-color="#6AACFF"/>
<stop offset="1" stop-color="#0F63CB"/>
</linearGradient>
<linearGradient id="paint2_linear_1334_7105" x1="62.6727" y1="26.2231" x2="55.0684" y2="46.7704" gradientUnits="userSpaceOnUse">
<stop stop-color="#9BC7FE"/>
<stop offset="1" stop-color="#378CF7"/>
</linearGradient>
<linearGradient id="paint3_linear_1334_7105" x1="73.9276" y1="45.9666" x2="49.9004" y2="98.3571" gradientUnits="userSpaceOnUse">
<stop stop-color="#9BC7FE"/>
<stop offset="1" stop-color="#378CF7"/>
</linearGradient>
<linearGradient id="paint4_linear_1334_7105" x1="76.3005" y1="46.9446" x2="25.8922" y2="45.2705" gradientUnits="userSpaceOnUse">
<stop stop-color="#6AACFF"/>
<stop offset="1" stop-color="#0F63CB"/>
</linearGradient>
<radialGradient id="paint5_radial_1334_7105" cx="0" cy="0" r="1" gradientUnits="userSpaceOnUse" gradientTransform="translate(86.3791 92.9679) rotate(163.928) scale(26.4264 12.2795)">
<stop stop-color="#FFE0B9"/>
<stop offset="1" stop-color="#DCAD70"/>
</radialGradient>
<radialGradient id="paint6_radial_1334_7105" cx="0" cy="0" r="1" gradientUnits="userSpaceOnUse" gradientTransform="translate(86.3791 85.1622) rotate(163.928) scale(26.4264 12.2795)">
<stop stop-color="#FFE0B9"/>
<stop offset="1" stop-color="#DCAD70"/>
</radialGradient>
<radialGradient id="paint7_radial_1334_7105" cx="0" cy="0" r="1" gradientUnits="userSpaceOnUse" gradientTransform="translate(101.098 75.7992) rotate(123.436) scale(29.2718 23.5107)">
<stop stop-color="#FFE0B9"/>
<stop offset="1" stop-color="#DCAD70"/>
</radialGradient>
<radialGradient id="paint8_radial_1334_7105" cx="0" cy="0" r="1" gradientUnits="userSpaceOnUse" gradientTransform="translate(54.8054 63) rotate(112.658) scale(35.6102 29.3844)">
<stop stop-color="#FFF2E0"/>
<stop offset="1" stop-color="#FFC984"/>
</radialGradient>
</defs>
</svg>
